<svg width="138" height="15" viewBox="0 0 138 15" fill="none" xmlns="http://www.w3.org/2000/svg">
<path d="M1.72458 11.5458C1.57462 10.8588 1.57462 10.7824 2.02451 10.7824C2.24946 10.7824 2.4744 10.7824 2.69935 10.6298C2.92429 10.4771 3.07426 10.0954 3.44917 10.0954C3.97404 10.0954 4.04902 9.4084 4.64888 9.4084C5.09877 9.4084 5.54866 9.4084 5.99855 9.4084C6.29848 9.4084 6.44844 9.25573 6.67339 9.10305C6.89833 8.95038 7.27324 9.02672 7.42321 8.72137C7.8731 8.79771 8.02306 8.33969 8.39797 8.33969C8.84786 8.26336 9.07281 7.88168 9.59768 7.95802C9.97259 8.03435 10.3475 7.88168 10.7224 7.95802C11.2473 8.03435 11.4722 7.65267 11.9221 7.57634C12.372 7.57634 12.8219 7.57634 13.2718 7.57634C13.7217 7.57634 14.1716 7.65267 14.6215 7.57634C15.0714 7.5 15.4463 7.19466 15.9711 7.27099C16.496 7.34733 17.0209 7.27099 17.4708 7.27099C17.9957 7.27099 18.2206 6.73664 18.8205 6.88931C19.3453 7.04198 19.9452 6.88931 20.545 6.88931C21.0699 6.88931 21.5948 6.96565 22.0447 6.88931C22.6445 6.81298 23.1694 6.4313 23.7693 6.50763C24.3691 6.58397 25.044 6.50763 25.6438 6.50763C26.2437 6.50763 26.9185 6.4313 27.5184 6.50763C28.0432 6.58397 28.3432 6.04962 28.868 6.12595C29.3929 6.20229 29.9928 6.12595 30.5926 6.12595C31.1175 6.12595 31.6424 6.12595 32.0922 6.12595C32.7671 6.04962 33.5169 6.35496 34.0418 5.82061H34.1917C34.3417 5.82061 34.4167 5.82061 34.5666 5.82061H36.2912H37.7909C38.2408 5.43893 38.9156 5.66794 39.4405 5.5916C39.5155 5.5916 39.5904 5.51527 39.5904 5.51527C39.5155 5.43893 39.4405 5.28626 39.4405 5.28626C38.7656 5.3626 38.0908 5.13359 37.4909 5.5916C37.341 5.66794 36.9661 5.5916 36.7411 5.5916C35.4664 5.5916 34.1917 5.5916 32.917 5.5916C32.3922 5.5916 32.1672 6.12595 31.5674 5.97328C31.1175 5.89695 30.5926 5.97328 30.0677 5.97328C29.5429 5.97328 29.018 5.97328 28.5681 5.97328C27.8933 6.04962 27.3684 6.4313 26.6186 6.35496C25.9437 6.27863 25.1939 6.35496 24.5191 6.35496C23.8442 6.35496 23.0944 6.4313 22.4196 6.35496C21.8197 6.20229 21.5198 6.73664 20.9949 6.66031C20.4701 6.58397 20.0202 6.66031 19.4953 6.66031H17.9957H16.496H14.9964H13.4967C12.8969 6.66031 12.297 6.58397 11.7722 6.66031C11.0973 6.81298 10.7974 6.27863 10.1975 6.27863C9.59768 6.27863 9.07281 6.27863 8.47295 6.27863C8.39797 6.27863 8.24801 6.20229 8.17303 6.12595C7.79812 5.66794 7.34822 5.5916 6.74837 5.51527C6.29848 5.43893 5.99855 5.05725 5.62364 4.75191C6.37346 4.37023 7.0483 4.75191 7.57317 4.44656C7.57317 4.21756 7.34823 4.14122 7.19826 3.98855C7.0483 3.83588 6.82335 3.68321 6.67339 3.53053C6.44844 3.30153 6.37346 3.14885 6.67339 2.91985C6.97332 2.69084 6.89833 2.3855 6.89833 2.15649C6.89833 1.85115 7.34822 1.69847 7.34822 1.31679C7.34822 1.01145 7.8731 1.16412 8.17303 1.16412C8.62292 1.16412 9.07281 1.16412 9.5227 1.16412C9.67266 1.16412 9.82263 1.01145 9.97259 0.935115C10.2725 0.782443 10.3475 0.782443 10.6474 0.935115C10.8724 1.08779 11.0223 1.16412 11.3223 1.16412C11.4722 1.16412 11.6972 1.16412 11.8471 1.31679C12.222 1.77481 12.6719 1.85114 13.3468 1.85114C13.7967 1.85114 14.0966 1.62214 14.4715 1.5458C14.6964 1.92748 15.1463 1.77481 15.5213 1.77481C15.9711 1.77481 16.421 1.77481 16.8709 1.77481H17.9957H19.3453C19.7202 1.77481 20.0951 1.77481 20.4701 1.77481C20.77 1.77481 20.9949 1.77481 21.1449 1.5458C21.2199 1.39313 21.2949 1.46947 21.4448 1.5458C21.9697 1.85115 21.9697 1.85115 22.3446 1.5458C22.4196 1.46947 22.4946 1.39313 22.6445 1.31679C22.4946 1.24046 22.3446 1.16412 22.1946 1.16412C21.6698 1.16412 21.1449 1.16412 20.695 1.16412C20.62 1.16412 20.545 1.08779 20.3951 1.01145C20.4701 0.935115 20.62 0.858779 20.695 0.858779C21.2949 0.858779 21.8197 0.858779 22.4196 0.858779C22.6445 0.858779 22.7945 0.324427 23.0944 0.706107C23.3194 1.01145 23.6943 0.782443 23.9942 0.858779C24.0692 0.858779 24.1442 0.935115 24.1442 1.01145C24.2191 2.08015 25.0439 1.39313 25.5688 1.5458C25.5688 1.5458 25.7188 1.39313 25.7188 1.24046C25.7188 1.08779 25.7188 0.858779 25.9437 0.935115C26.0187 0.935115 26.0937 1.24046 26.0937 1.39313C26.1687 1.85115 26.3186 2.00382 26.7685 1.92748C26.9185 1.92748 27.0685 1.85115 27.2184 1.77481C27.7433 1.5458 28.2682 1.46947 28.7181 1.85114C28.943 2.00382 29.168 1.92748 29.3929 2.00382C29.5429 2.00382 29.7678 2.00382 29.7678 1.77481C29.7678 1.69847 29.5429 1.69847 29.4679 1.62214C29.3929 1.5458 29.168 1.5458 29.168 1.46947C29.168 1.24046 29.3179 1.24046 29.5429 1.24046C29.6178 1.24046 29.6928 1.24046 29.7678 1.24046C30.1427 1.31679 30.2927 1.16412 30.2927 0.782443C30.2927 0.629771 30.4426 0.553435 30.6676 0.706107C30.5176 0.706107 30.7426 0.782443 30.7426 0.706107C31.1175 0.248092 31.6424 0.477099 32.1672 0.400763C32.6171 0.400763 32.992 0.324427 33.3669 0.706107C33.4419 0.782443 33.8168 0.782443 34.1168 0.706107C34.3417 0.629771 34.4167 0.324428 34.7166 0.400763C35.5414 0.400763 36.3662 0.400763 37.191 0.400763C37.266 0.400763 37.341 0.553435 37.4909 0.629771C37.7159 0.935114 38.0908 0.858779 38.2408 0.782443C38.7656 0.400763 39.2155 0.324427 39.7404 0.782443C39.7404 0.782443 39.9653 0.706107 39.9653 0.629771C40.2653 0.400763 40.4902 0.477099 40.7901 0.629771C41.0901 0.858779 41.24 0.858779 41.39 0.629771C41.6899 0.324427 42.0648 0.477099 42.4397 0.400763C42.9646 1.01145 43.7144 0.706107 44.3893 0.706107C44.6892 0.324427 45.0641 0.248092 45.439 0.629771H45.589C45.8889 0.171756 46.4138 0.400763 46.7887 0.324427C47.6885 0.324427 48.5883 0.324427 49.488 0.324427C49.9379 0.324427 50.5378 0.477099 50.8377 0.019084C51.2876 0.553435 51.8125 0.324427 52.4123 0.324427C52.9372 0.324427 53.4621 0.324427 53.912 0.324427C54.2119 0.324427 54.4369 0.248092 54.5868 0.0954198C54.5868 0.0954198 54.6618 0.0954199 54.8118 0.248092C55.0367 0.477099 55.3366 0.553435 55.5616 0.248092C55.7115 0.0954199 55.7865 0.171756 56.0115 0.248092C56.5363 0.477099 57.0612 0.553435 57.5111 0.171756C57.7361 -0.0572519 57.811 0.171756 57.886 0.248092C58.1859 0.400763 58.1859 0.400763 58.5609 0.248092C58.7108 0.171756 58.7858 -0.0572519 58.9358 0.171756C59.2357 0.553435 59.7606 0.553435 59.9855 0.400763C60.4354 0.019084 60.8853 0.171756 61.4102 0.0954198C61.8601 0.0954198 62.3099 -0.0572519 62.6099 0.400763C62.6849 0.477099 62.9848 0.400763 63.0598 0.324427C63.2847 0.248092 63.4347 0.0954198 63.7346 0.0954198C64.4844 0.0954198 65.2342 0.0954198 65.9841 0.0954198C72.9574 0.0954198 79.9307 0.0954198 86.904 0.0954198C87.3539 0.0954198 87.8038 0.019084 88.1037 0.400763C88.1787 0.477099 88.4786 0.400763 88.5536 0.324427C88.7786 0.0954198 88.9285 0.171756 89.0785 0.324427C89.3034 0.477099 89.3784 0.0954199 89.4534 0.171756C90.3532 0.629771 91.3279 0.400763 92.3027 0.400763C93.3524 0.477099 94.4772 0.400763 95.5269 0.400763H98.6012C99.6509 0.400763 100.626 0.400763 101.675 0.400763C102.2 0.400763 102.8 0.629771 103.25 0.0954198C103.4 -0.0572519 103.7 0.019084 104 0.019084C109.399 0.019084 114.797 0.019084 120.196 0.019084C120.646 0.019084 120.946 0.324428 121.396 0.400763C121.771 0.477099 122.145 0.248092 122.52 0.477099C122.595 0.553435 122.67 0.629771 122.82 0.706107C123.195 0.0954198 123.57 0.477099 124.02 0.706107C124.47 0.858779 124.995 0.706107 125.52 0.706107C126.045 0.706107 126.344 1.24046 126.869 1.08779C127.244 1.01145 127.769 1.01145 128.219 1.08779C128.519 1.08779 128.744 1.31679 129.044 1.39313C129.344 1.46947 129.719 1.31679 130.019 1.39313C130.319 1.46947 130.468 1.69847 130.843 1.77481C131.068 1.77481 131.293 2.15649 131.668 2.08015L131.743 2.30916C131.443 2.46183 131.518 2.84351 131.368 2.99618C131.143 3.22519 130.843 3.53053 130.393 3.4542C130.244 3.4542 130.094 3.53053 129.944 3.60687C130.244 3.83588 130.468 4.06489 130.693 4.29389C130.693 4.29389 130.693 4.37023 130.693 4.44656C130.244 4.75191 130.019 5.28626 129.344 5.28626C129.044 5.28626 128.744 5.28626 128.369 5.28626C127.994 5.28626 128.069 5.5916 128.069 5.82061C128.069 5.89695 128.069 5.89695 128.069 5.97328C127.694 5.97328 127.469 6.27863 127.094 6.35496C126.719 6.4313 126.494 6.88931 126.12 7.19466C126.344 7.27099 126.494 7.34733 126.644 7.34733C128.519 7.34733 130.468 7.34733 132.343 7.34733C132.868 7.34733 133.468 7.42366 133.993 7.42366C134.368 7.88168 134.892 7.65267 135.417 7.65267C135.867 8.18702 136.917 7.80534 137.292 8.5687C137.442 8.79771 137.742 8.95038 137.967 9.17939C137.967 9.56107 137.967 9.94275 137.967 10.2481C137.967 10.3244 138.042 10.5534 137.967 10.5534C137.367 10.9351 137.742 11.4695 137.592 11.9275L136.167 12.3092C136.017 12.2328 135.942 11.9275 135.792 12.2328C135.567 12.5382 134.817 12.2328 134.967 12.9198C134.967 12.9962 134.817 13.0725 134.667 13.0725C134.218 12.9962 133.768 13.1489 133.543 13.5305C133.318 13.8359 133.018 13.8359 132.718 13.7595C132.343 13.6832 132.193 14.2176 131.743 14.1412C131.368 14.0649 130.993 14.0649 130.618 14.1412C130.169 14.2939 130.019 13.6832 129.719 13.9122C129.419 14.1412 129.119 14.1412 128.819 14.0649C128.369 14.0649 127.919 14.2176 127.619 13.7595C127.094 13.7595 126.644 13.6832 126.12 13.6832C125.67 13.6832 125.22 13.5305 124.92 13.9886C124.845 14.0649 124.62 14.0649 124.545 14.0649C124.245 13.9122 124.02 13.6069 123.72 14.0649C123.42 14.0649 123.12 14.0649 122.745 14.0649C122.37 14.0649 121.996 14.0649 121.621 14.0649H120.646H119.521C119.221 14.0649 118.846 13.9885 118.546 14.0649C118.246 14.1412 118.021 14.2939 117.722 14.3702C117.422 14.4466 117.122 14.3702 116.747 14.3702C116.222 14.3702 115.622 14.4466 115.172 14.0649C115.022 13.9885 114.572 13.9885 114.497 14.0649C114.122 14.4466 113.748 14.3702 113.298 14.3702C112.923 14.3702 112.548 14.4466 112.248 14.0649C112.098 13.9122 111.798 13.9886 111.498 13.9886C107.374 13.9886 103.25 13.9886 99.1261 13.9886C98.7511 13.9886 98.4512 13.9885 98.0763 14.2939C97.8514 14.4466 97.3265 14.5229 97.1015 14.1412C97.0266 13.9885 96.9516 13.9885 96.8016 14.1412C96.5767 14.5229 96.1268 14.3702 95.7519 14.3702C95.4519 13.9122 95.002 13.9885 94.5522 14.0649C94.1772 14.0649 93.8023 13.9885 93.5024 14.2939C93.3524 14.4466 92.9026 14.3702 92.6026 14.3702C86.829 14.3702 81.0554 14.3702 75.2818 14.3702C74.532 14.3702 73.7822 14.1412 73.1823 14.6756C73.1073 14.7519 72.8824 14.6756 72.8824 14.5992C72.6574 14.2176 72.2076 14.2939 71.8326 14.2939C69.9581 14.2939 68.1585 14.2939 66.284 14.2939C59.5356 14.2939 52.7123 14.2939 45.9639 14.2939C45.514 14.2939 45.1391 14.2176 44.7642 14.5992C44.6142 14.7519 44.3143 14.5992 44.0893 14.4466C43.7144 14.1412 43.2645 14.1412 42.9646 14.5229C42.8147 14.6756 42.8147 14.6756 42.6647 14.5229C42.5897 14.4466 42.3648 14.2939 42.2148 14.2939C41.465 14.2939 40.7152 14.2939 39.9653 14.2939C39.2905 14.2939 38.7656 14.8282 38.0158 14.6756C37.341 14.5229 36.5912 14.6756 35.9163 14.6756H33.8168H31.7173H29.6178H27.5184H25.4938C24.819 14.6756 24.0692 14.6756 23.3943 14.6756C23.0194 14.6756 22.6445 14.5992 22.3446 14.9046C22.2696 15.0573 21.8947 14.9809 21.6698 14.9809C17.6957 14.9809 13.7217 14.9809 9.67266 14.9809C9.29775 14.9809 8.92284 15.0573 8.62292 14.6756C8.62292 14.6756 8.24801 14.9046 8.09804 14.9046C6.44844 14.9046 4.79884 14.9809 3.14924 14.9046C2.69935 14.9046 2.24946 14.5992 1.87455 14.3702C1.72458 14.2939 1.72458 14.2939 1.57462 14.3702C0.674837 14.9809 0.749819 15.0573 0 14.2939C0.149964 14.2176 0.374909 14.2176 0.524873 14.1412C0.749819 14.0649 0.899783 13.8359 0.749819 13.6832C0.674837 13.6069 0.524873 13.5305 0.524873 13.4542C0.299928 13.0725 0.374909 12.9198 0.974764 12.5382C1.19971 12.3855 1.19971 12.1565 1.19971 11.9275C1.19971 11.6221 1.19971 11.3931 1.72458 11.5458C1.87455 11.5458 1.79957 11.4695 1.72458 11.4695H1.57462C1.57462 11.4695 1.57462 11.5458 1.57462 11.6221C1.6496 11.6985 1.72458 11.7748 1.79957 11.7748C1.79957 11.7748 1.87455 11.6985 1.72458 11.5458ZM115.922 6.96565C116.447 6.96565 116.897 6.96565 117.422 6.96565C117.497 6.96565 117.572 6.81298 117.572 6.73664C117.572 6.73664 117.497 6.66031 117.422 6.66031C116.522 6.66031 115.697 6.66031 114.797 6.66031C114.722 6.66031 114.647 6.81298 114.647 6.88931C114.647 6.88931 114.722 6.96565 114.797 6.96565C115.172 6.96565 115.547 6.96565 115.922 6.96565ZM11.3972 3.22519C11.5472 3.14885 11.6972 3.14886 11.7722 3.07252V2.99618C11.6222 2.84351 11.2473 2.84351 11.1723 2.99618C11.0973 3.07252 11.3223 3.14885 11.3972 3.22519Z" fill="#E3C300"/>
</svg>
